<svg width="70" height="45" viewBox="0 0 70 45" fill="none" xmlns="http://www.w3.org/2000/svg">
<path d="M67.8253 44.7179H1.92529C1.27541 44.7179 0.748444 44.1909 0.748444 43.541V32.95H69.0021V43.541C69.0021 44.191 68.4751 44.7179 67.8253 44.7179Z" fill="#73AF00"/>
<path d="M67.8253 0H1.92529C1.27541 0 0.748444 0.526966 0.748444 1.17684V32.95H69.0021V1.17684C69.0021 0.526966 68.4751 0 67.8253 0Z" fill="#FF4B55"/>
<path d="M10.1628 44.7179H1.92529C1.27541 44.7179 0.748444 44.1909 0.748444 43.541V1.17684C0.748444 0.526966 1.27541 0 1.92529 0H10.1628V44.7179Z" fill="#F5F5F5"/>
<path d="M1.92593 42.7635H2.34212V41.597H1.92593V42.7635ZM5.2477 42.7635H5.66402V41.597H5.2477V42.7635ZM8.5716 42.7635H8.98592V41.597H8.5716V42.7635ZM3.58895 39.6361H4.00101V38.664H3.58895V39.6361ZM6.91272 39.6361H7.32704V38.664H6.91272V39.6361ZM1.92593 37.1003H2.34212V35.9338H1.92593V37.1003ZM5.2477 37.1003H5.66402V35.9338H5.2477V37.1003ZM8.5716 37.1003H8.98592V35.9338H8.5716V37.1003ZM2.76057 38.664H3.17263V37.6832H3.58895V36.7112H4.00101V37.6832H4.41946V38.664H4.83151V39.6361H4.41946V40.6164H4.00101V41.5968H3.58895V40.6164H3.17263V39.6361H2.76057V38.664ZM6.08248 38.664H6.49866V37.6832H6.91285V36.7112H7.32717V37.6832H7.74136V38.664H8.15755V39.6361H7.74136V40.6164H7.32717V41.5968H6.91285V40.6164H6.49866V39.6361H6.08248V38.664ZM6.91272 34.7589V35.7309H6.49453V36.7113H6.08248V37.6834H5.66402V38.6641H5.2477V37.6834H4.83138V36.7113H4.41933V35.7309H4.00087V34.7589H3.58882V35.7309H3.1725V36.7113H2.76044V37.6834H2.34199V38.6641H1.92593V39.6362H2.34212V40.6165H2.76057V41.5969H3.17263V42.569H3.58895V43.5412H4.00527V42.569H4.41946V41.5969H4.83151V40.6165H5.24783V39.6362H5.66416V40.6165H6.08261V41.5969H6.4988V42.569H6.91298V43.5412H7.3273V42.569H7.74149V41.5969H8.15768V40.6165H8.574V39.6362H8.98605V38.6641H8.57173V37.6834H8.15768V36.7113H7.74149V35.7309H7.3273V34.7589H6.91272ZM7.94185 33.787H8.14901V33.3983H8.35817V33.787H8.56734V34.1756H8.35817V34.5729H8.14901V34.1756H7.94185V33.787ZM7.94185 32.426V33.0009H7.73696V33.5925H7.5278V34.3703H7.73696V34.9534H7.94185V35.5364H8.56747V34.9534H8.77463V34.3703H8.97952V33.5925H8.77463V33.0009H8.56747V32.426H7.94185ZM2.34212 33.7784H2.55128V33.3898H2.76044V33.7784H2.9632V34.1756H2.76044V34.5644H2.55128V34.1756H2.34212V33.7784ZM2.34212 32.4174V33.0008H2.13496V33.5839H1.92593V34.37H2.13496V34.9531H2.34212V35.5362H2.96334V34.9531H3.1725V34.37H3.37552V33.5839H3.1725V33.0008H2.96334V32.4174H2.34212ZM4.62635 33.7784H4.83125V33.3898H5.04267V33.7784H5.24757V34.1756H5.04267V34.5644H4.83125V34.1756H4.62635V33.7784ZM5.66402 33.7784H5.87318V33.3898H6.08234V33.7784H6.28724V34.1756H6.08234V34.5644H5.87318V34.1756H5.66402V33.7784ZM5.66402 32.4174V33.0008H5.2477V32.4174H4.62649V33.0008H4.41933V33.5839H4.21017V34.37H4.41933V34.9531H4.62649V35.5362H5.2477V34.9531H5.66402V35.5362H6.28737V34.9531H6.49866V34.37H6.70169V33.5839H6.49866V33.0008H6.28737V32.4174H5.66402ZM1.92593 32.0202H2.34212V30.8539H1.92593V32.0202ZM5.2477 32.0202H5.66402V30.8539H5.2477V32.0202ZM8.5716 32.0202H8.98592V30.8539H8.5716V32.0202ZM1.92593 27.143H2.34212V26.3655H1.92593V27.143ZM8.5716 27.143H8.98592V26.3655H8.5716V27.143ZM5.2477 24.4128H5.66402V23.4407H5.2477V24.4128ZM1.92593 21.7759V22.359V22.3674V22.9504H2.34212V22.3674V22.359V21.7759H1.92593ZM4.21003 21.7759V22.359V22.3674V22.9504H4.62635V22.3674V22.359V21.7759H4.21003ZM6.28737 21.7759V22.359V22.3674V22.9504H6.70156V22.3674V22.359V21.7759H6.28737ZM8.5716 21.7759V22.359V22.3674V22.9504H8.98592V22.3674V22.359V21.7759H8.5716ZM5.87318 21.0913V21.4801H5.66402V21.7759H5.2477V21.4801H5.04281V21.0913H4.62649V21.6744H4.83138V21.9702H5.04281V22.359V22.3674V22.7478H4.83138V23.0436H4.62649V23.6267H5.04281V23.2381H5.2477V22.9506H5.66402V23.2381H5.87318V23.6267H6.28737V23.0436H6.08248V22.7478H5.87332V22.3674V22.359V21.9702H6.08248V21.6744H6.28737V21.0913H5.87318ZM5.2477 21.2854H5.66402V20.3133H5.2477V21.2854ZM1.92593 18.3608H2.34212V17.5833H1.92593V18.3608ZM8.5716 18.3608H8.98592V17.5833H8.5716V18.3608ZM1.92593 13.8726H2.34212V12.6979H1.92593V13.8726ZM5.2477 13.8726H5.66402V12.6979H5.2477V13.8726ZM8.5716 13.8726H8.98592V12.6979H8.5716V13.8726ZM3.58895 22.3759V22.3506V21.9701H4.00101V21.2938H4.41946V20.5077H5.04281V19.5865H5.2477V19.1385H5.45699H5.66402V19.578H5.87318V20.5078H6.49853V20.8966V21.2938H6.91272V21.9701H7.32704V22.359V22.7477H6.91272V23.4407H6.49853V23.8295V24.2182H5.87318V25.1396H5.66402V25.5791H5.45699H5.2477V25.1396H5.04281V24.2182H4.41946V23.4405H4.00101V22.7474H3.58895V22.3759ZM6.91272 11.5229V12.5032H6.49453V13.4753H6.08248V14.4561H5.66402V15.2335V15.428H5.2477V14.4559H4.83138V13.4752H4.41933V12.5031H4.00087V11.5228H3.58882V12.5031H3.1725V13.4752H2.75618V14.4559H2.34199V15.2334V15.4279H1.92593V16.4082H2.34212V17.3886H2.75631V18.3607H3.17263V19.3329H3.58895V18.3607H4.00101V17.3886H4.41946V16.4082H4.00101V15.2332H4.41946V15.4277V16.0194H4.83151V17.5832H5.04294V18.5467L4.41959 18.5551V19.3329H4.00114V19.916H3.58908V20.8963H3.17276V19.916H2.75644V19.3329H2.34225V18.7495H1.92593V20.5076H2.34212V21.2937H2.75631V21.97H3.17263V22.359V22.3674V22.7478H2.75631V23.4409H2.34212V24.2186H1.92593V25.9767H2.34212V25.3849H2.75631V24.8018H3.17263V23.8297H3.58895V24.8018H4.00101V25.3849H4.41946V26.171L5.04281 26.1794V27.143H4.83138V28.7068H4.41933V29.2899V29.4929H4.00087V28.3096H4.41933V27.3375H4.00087V26.3654H3.58882V25.3846H3.1725V26.3654H2.75618V27.3375H2.34199V28.3096H1.92593V29.2899H2.34212V29.4929V30.262H2.76057V31.2427H3.17263V32.2231H3.58895V33.1952H4.00101V32.2231H4.41946V31.2427H4.83151V30.262H5.24783V29.2899H5.66416V29.4929V30.262H6.08261V31.2427H6.4988V32.2231H6.91298V33.1952H7.3273V32.2231H7.74149V31.2427H8.15768V30.262H8.57173V29.2899H8.98592V28.3096H8.5716V27.3375H8.15755V26.3654H7.74136V25.3846H7.32717V26.3654H6.91285V27.3375H6.49466V28.3096H6.91285V29.2899V29.4929H6.49466V29.2899V28.7068H6.08261V27.143H6.02329H5.87345V26.1709H6.02329H6.1354H6.2875H6.4988V25.3848H6.91298V24.8017H7.3273V23.8296H7.74149V24.8017H8.15768V25.3848H8.574V25.9765H8.98605V24.2185H8.57387V23.4407H8.15755V22.7477H7.74136V22.3674V22.359V21.9702H8.15755V21.294H8.57387V20.5078H8.98605V18.7498H8.57387V19.3331H8.15755V19.9162H7.74136V20.8966H7.32717V19.9162H6.91285V19.3331H6.49866V18.5554H6.28737H6.13527H6.02315H5.87332V17.5833H6.02315H6.08248V16.0195H6.49453V15.4279V15.2334H6.91272V15.4279V16.4082H6.49453V17.3886H6.91272V18.3607H7.32704V19.3329H7.74123V18.3607H8.15741V17.3886H8.57147V16.4082H8.98605V15.4279H8.57173V14.4558H8.15768V13.475H7.74149V12.503H7.3273V11.5226H6.91272V11.5229ZM2.34212 10.5508H2.54728V10.1621H2.76057V10.5508H2.96334V10.9395H2.76057V11.3368H2.54728V10.9395H2.34212V10.5508ZM2.34212 9.76469H2.13496V10.3563H1.92593V11.134H2.13496V11.7256H2.34212V12.309H2.96334V11.7256H3.1725V11.134H3.37552V10.3563H3.1725V9.76469H2.96334V9.19H2.34212V9.76469ZM4.62635 10.5508H4.83125V10.1621H5.04267V10.5508H5.24757V10.9395H5.04267V11.3368H4.83125V10.9395H4.62635V10.5508ZM5.66402 10.5508H5.87318V10.1621H6.08234V10.5508H6.28724V10.9395H6.08234V11.3368H5.87318V10.9395H5.66402V10.5508ZM4.62635 9.76469H4.41919V10.3563H4.21003V11.134H4.41919V11.7256H4.62635V12.309H5.24757V11.7256H5.66389V12.309H6.28724V11.7256H6.49853V11.134H6.70156V10.3563H6.49853V9.76469H6.28724V9.19H5.66389V9.76469H5.24757V9.19H4.62635V9.76469ZM7.94185 10.5424H8.14901V10.1619H8.35817V10.5424H8.56734V10.9397H8.35817V11.3283H8.14901V10.9397H7.94185V10.5424ZM7.94185 9.1816V9.76469H7.73696V10.3563H7.5278V11.134H7.73696V11.7171H7.94185V12.3005H8.56747V11.7171H8.77463V11.134H8.97952V10.3563H8.77463V9.76469H8.56747V9.1816H7.94185ZM1.92593 8.79274H2.34212V7.62629H1.92593V8.79274ZM5.2477 8.79274H5.66402V7.62629H5.2477V8.79274ZM8.5716 8.79274H8.98592V7.62629H8.5716V8.79274ZM3.58895 6.06259H4.00101V5.08185H3.58895V6.06259ZM6.91272 6.06259H7.32704V5.08185H6.91272V6.06259ZM1.92593 3.12955H2.34212V1.96311H1.92593V3.12955ZM5.2477 3.12955H5.66402V1.96311H5.2477V3.12955ZM8.5716 3.12955H8.98592V1.96311H8.5716V3.12955ZM2.76057 5.08198H3.17263V4.1099H3.58895V3.12955H4.00101V4.1099H4.41946V5.08198H4.83151V6.06273H4.41946V7.03481H4.00101V8.01515H3.58895V7.03481H3.17263V6.06273H2.76057V5.08198ZM6.08248 5.08198H6.49866V4.1099H6.91285V3.12955H7.32717V4.1099H7.74136V5.08198H8.15755V6.06273H7.74136V7.03481H7.32717V8.01515H6.91285V7.03481H6.49866V6.06273H6.08248V5.08198ZM6.91272 1.17686V2.1576H6.49853V3.12969H6.08234V4.11003H5.66389V5.08211H5.24757V4.11003H4.83125V3.12969H4.41919V2.1576H4.00514V1.17686H3.58882V2.1576H3.1725V3.12969H2.76044V4.11003H2.34199V5.08211H1.92593V6.06286H2.34212V7.03494H2.76057V8.01529H3.17263V8.99563H3.58895V9.96772H4.00101V8.99563H4.41946V8.01529H4.83151V7.03494H5.24783V6.06286H5.66416V7.03494H6.08261V8.01529H6.49466V8.99563H6.91285V9.96772H7.32717V8.99563H7.74136V8.01529H8.15755V7.03494H8.5716V6.06286H8.98592V5.08211H8.57373V4.11003H8.15741V3.12969H7.74123V2.1576H7.32704V1.17686H6.91272Z" fill="#FF4B55"/>
</svg>
