<svg width="69" height="45" viewBox="0 0 69 45" fill="none" xmlns="http://www.w3.org/2000/svg">
<path d="M63.6389 0H5.60858C2.78538 0 0.496887 2.2885 0.496887 5.11169V13.5819H68.7506V5.11169C68.7506 2.2885 66.4621 0 63.6389 0Z" fill="#82AFFF"/>
<path d="M0.496887 39.6062C0.496887 42.4293 2.78538 44.7179 5.60858 44.7179H63.6389C66.4619 44.7179 68.7506 42.4294 68.7506 39.6062V31.136H0.496887V39.6062Z" fill="#73AF00"/>
<path d="M68.7506 15.4403H0.496887V29.2763H68.7506V15.4403Z" fill="#F5F5F5"/>
<path d="M0.497101 14.906V15.4405H68.7508V14.906V13.5818H0.497101V14.906Z" fill="#FF4B55"/>
<path d="M0.496887 29.8117V31.1359H68.7506V29.8117V29.2772H0.496887V29.8117Z" fill="#FF4B55"/>
<path d="M15.626 11.1705C13.2169 11.1705 11.2641 9.22238 11.2641 6.8219C11.2641 4.41263 13.2168 2.45567 15.626 2.45567C15.6354 2.45567 15.6444 2.45567 15.6535 2.4558C15.7954 2.45767 15.8451 2.2693 15.72 2.20225C14.9782 1.80459 14.1315 1.57957 13.2314 1.5861C10.3488 1.60663 8.00723 3.99537 8.0379 6.87802C8.06802 9.73095 10.4004 12.0402 13.2692 12.0402C14.1569 12.0402 14.9916 11.8156 15.7243 11.4234C15.8489 11.3566 15.7986 11.1683 15.6572 11.1703C15.6466 11.1705 15.6363 11.1705 15.626 11.1705Z" fill="#F5F5F5"/>
<path d="M19.0417 9.96801L18.8469 10.5522L18.2312 10.5568C18.1514 10.5574 18.1184 10.6592 18.1825 10.7065L18.6779 11.0723L18.492 11.6594C18.468 11.7354 18.5546 11.7983 18.6195 11.7519L19.1205 11.3939L19.6214 11.7519C19.6863 11.7983 19.7727 11.7354 19.7489 11.6594L19.563 11.0723L20.0583 10.7065C20.1224 10.6592 20.0893 10.5574 20.0096 10.5568L19.3939 10.5522L19.1991 9.96801C19.1739 9.89242 19.067 9.89242 19.0417 9.96801Z" fill="#F5F5F5"/>
<path d="M23.3799 9.96801L23.1852 10.5522L22.5694 10.5568C22.4897 10.5574 22.4566 10.6592 22.5208 10.7065L23.016 11.0723L22.8302 11.6594C22.8062 11.7354 22.8927 11.7983 22.9576 11.7519L23.4586 11.3939L23.9595 11.7519C24.0245 11.7983 24.1108 11.7354 24.087 11.6594L23.9012 11.0723L24.3964 10.7065C24.4605 10.6592 24.4275 10.5574 24.3477 10.5568L23.732 10.5522L23.5372 9.96801C23.512 9.89242 23.405 9.89242 23.3799 9.96801Z" fill="#F5F5F5"/>
<path d="M27.718 9.96801L27.5233 10.5522L26.9075 10.5568C26.8278 10.5574 26.7947 10.6592 26.8589 10.7065L27.3542 11.0723L27.1684 11.6594C27.1444 11.7354 27.2309 11.7983 27.2958 11.7519L27.7968 11.3939L28.2978 11.7519C28.3627 11.7983 28.4491 11.7354 28.4252 11.6594L28.2394 11.0723L28.7346 10.7065C28.7988 10.6592 28.7657 10.5574 28.686 10.5568L28.0702 10.5522L27.8755 9.96801C27.8503 9.89242 27.7432 9.89242 27.718 9.96801Z" fill="#F5F5F5"/>
<path d="M32.0561 9.96801L31.8614 10.5522L31.2456 10.5568C31.1659 10.5574 31.1328 10.6592 31.197 10.7065L31.6922 11.0723L31.5064 11.6594C31.4824 11.7354 31.5689 11.7983 31.6338 11.7519L32.1348 11.3939L32.6358 11.7519C32.7007 11.7983 32.7871 11.7354 32.7632 11.6594L32.5774 11.0723L33.0726 10.7065C33.1367 10.6592 33.1037 10.5574 33.0239 10.5568L32.4082 10.5522L32.2134 9.96801C32.1884 9.89242 32.0813 9.89242 32.0561 9.96801Z" fill="#F5F5F5"/>
<path d="M36.3944 9.96801L36.1996 10.5522L35.5839 10.5568C35.5041 10.5574 35.4711 10.6592 35.5352 10.7065L36.0306 11.0723L35.8447 11.6594C35.8207 11.7354 35.9073 11.7983 35.9722 11.7519L36.4732 11.3939L36.9741 11.7519C37.039 11.7983 37.1254 11.7354 37.1016 11.6594L36.9157 11.0723L37.4111 10.7065C37.4752 10.6592 37.4422 10.5574 37.3625 10.5568L36.7467 10.5522L36.5519 9.96801C36.5265 9.89242 36.4196 9.89242 36.3944 9.96801Z" fill="#F5F5F5"/>
<path d="M23.3799 5.91917L23.1852 6.50333L22.5694 6.50799C22.4897 6.50853 22.4566 6.61037 22.5208 6.6577L23.016 7.0235L22.8302 7.61058C22.8062 7.68657 22.8927 7.74949 22.9576 7.7031L23.4586 7.34503L23.9595 7.7031C24.0245 7.74949 24.1108 7.68657 24.087 7.61058L23.9012 7.0235L24.3964 6.6577C24.4605 6.61037 24.4275 6.50853 24.3477 6.50799L23.732 6.50333L23.5372 5.91917C23.512 5.84332 23.405 5.84332 23.3799 5.91917Z" fill="#F5F5F5"/>
<path d="M27.718 5.91917L27.5233 6.50333L26.9075 6.50799C26.8278 6.50853 26.7947 6.61037 26.8589 6.6577L27.3542 7.0235L27.1684 7.61058C27.1444 7.68657 27.2309 7.74949 27.2958 7.7031L27.7968 7.34503L28.2978 7.7031C28.3627 7.74949 28.4491 7.68657 28.4252 7.61058L28.2394 7.0235L28.7346 6.6577C28.7988 6.61037 28.7657 6.50853 28.686 6.50799L28.0702 6.50333L27.8755 5.91917C27.8503 5.84332 27.7432 5.84332 27.718 5.91917Z" fill="#F5F5F5"/>
<path d="M32.0561 5.91917L31.8614 6.50333L31.2456 6.50799C31.1659 6.50853 31.1328 6.61037 31.197 6.6577L31.6922 7.0235L31.5064 7.61058C31.4824 7.68657 31.5689 7.74949 31.6338 7.7031L32.1348 7.34503L32.6358 7.7031C32.7007 7.74949 32.7871 7.68657 32.7632 7.61058L32.5774 7.0235L33.0726 6.6577C33.1367 6.61037 33.1037 6.50853 33.0239 6.50799L32.4082 6.50333L32.2134 5.91917C32.1884 5.84332 32.0813 5.84332 32.0561 5.91917Z" fill="#F5F5F5"/>
<path d="M36.3944 5.91917L36.1996 6.50333L35.5839 6.50799C35.5041 6.50853 35.4711 6.61037 35.5352 6.6577L36.0306 7.0235L35.8447 7.61058C35.8207 7.68657 35.9073 7.74949 35.9722 7.7031L36.4732 7.34503L36.9741 7.7031C37.039 7.74949 37.1254 7.68657 37.1016 7.61058L36.9157 7.0235L37.4111 6.6577C37.4752 6.61037 37.4422 6.50853 37.3625 6.50799L36.7467 6.50333L36.5519 5.91917C36.5265 5.84332 36.4196 5.84332 36.3944 5.91917Z" fill="#F5F5F5"/>
<path d="M27.718 9.96801L27.5233 10.5522L26.9075 10.5568C26.8278 10.5574 26.7947 10.6592 26.8589 10.7065L27.3542 11.0723L27.1684 11.6594C27.1444 11.7354 27.2309 11.7983 27.2958 11.7519L27.7968 11.3939L28.2978 11.7519C28.3627 11.7983 28.4491 11.7354 28.4252 11.6594L28.2394 11.0723L28.7346 10.7065C28.7988 10.6592 28.7657 10.5574 28.686 10.5568L28.0702 10.5522L27.8755 9.96801C27.8503 9.89242 27.7432 9.89242 27.718 9.96801Z" fill="#F5F5F5"/>
<path d="M27.718 1.87004L27.5233 2.45419L26.9075 2.45886C26.8278 2.45939 26.7947 2.56124 26.8589 2.60856L27.3542 2.97436L27.1684 3.56145C27.1444 3.63743 27.2309 3.70035 27.2958 3.65396L27.7968 3.2959L28.2978 3.65396C28.3627 3.70035 28.4491 3.63743 28.4252 3.56145L28.2394 2.97436L28.7346 2.60856C28.7988 2.56124 28.7657 2.45939 28.686 2.45886L28.0702 2.45419L27.8755 1.87004C27.8503 1.79445 27.7432 1.79445 27.718 1.87004Z" fill="#F5F5F5"/>
<path d="M32.0561 9.96801L31.8614 10.5522L31.2456 10.5568C31.1659 10.5574 31.1328 10.6592 31.197 10.7065L31.6922 11.0723L31.5064 11.6594C31.4824 11.7354 31.5689 11.7983 31.6338 11.7519L32.1348 11.3939L32.6358 11.7519C32.7007 11.7983 32.7871 11.7354 32.7632 11.6594L32.5774 11.0723L33.0726 10.7065C33.1367 10.6592 33.1037 10.5574 33.0239 10.5568L32.4082 10.5522L32.2134 9.96801C32.1884 9.89242 32.0813 9.89242 32.0561 9.96801Z" fill="#F5F5F5"/>
<path d="M36.3944 9.96801L36.1996 10.5522L35.5839 10.5568C35.5041 10.5574 35.4711 10.6592 35.5352 10.7065L36.0306 11.0723L35.8447 11.6594C35.8207 11.7354 35.9073 11.7983 35.9722 11.7519L36.4732 11.3939L36.9741 11.7519C37.039 11.7983 37.1254 11.7354 37.1016 11.6594L36.9157 11.0723L37.4111 10.7065C37.4752 10.6592 37.4422 10.5574 37.3625 10.5568L36.7467 10.5522L36.5519 9.96801C36.5265 9.89242 36.4196 9.89242 36.3944 9.96801Z" fill="#F5F5F5"/>
<path d="M32.0561 1.87004L31.8614 2.45419L31.2456 2.45886C31.1659 2.45939 31.1328 2.56124 31.197 2.60856L31.6922 2.97436L31.5064 3.56145C31.4824 3.63743 31.5689 3.70035 31.6338 3.65396L32.1348 3.2959L32.6358 3.65396C32.7007 3.70035 32.7871 3.63743 32.7632 3.56145L32.5774 2.97436L33.0726 2.60856C33.1367 2.56124 33.1037 2.45939 33.0239 2.45886L32.4082 2.45419L32.2134 1.87004C32.1884 1.79445 32.0813 1.79445 32.0561 1.87004Z" fill="#F5F5F5"/>
<path d="M36.3944 1.87004L36.1996 2.45419L35.5839 2.45886C35.5041 2.45939 35.4711 2.56124 35.5352 2.60856L36.0306 2.97436L35.8447 3.56145C35.8207 3.63743 35.9073 3.70035 35.9722 3.65396L36.4732 3.2959L36.9741 3.65396C37.039 3.70035 37.1254 3.63743 37.1016 3.56145L36.9157 2.97436L37.4111 2.60856C37.4752 2.56124 37.4422 2.45939 37.3625 2.45886L36.7467 2.45419L36.5519 1.87004C36.5265 1.79445 36.4196 1.79445 36.3944 1.87004Z" fill="#F5F5F5"/>
</svg>
