<svg width="195" height="84" fill="none" xmlns="http://www.w3.org/2000/svg">
	<path d="M3.09.28C6.17-.81 9.93 1.4 9.79 4.81c.3 4.31-6.1 6.54-8.56 3.11C-1.14 5.67.17 1.25 3.09.28zM40.09.28c3.08-1.09 6.84 1.12 6.7 4.53.3 4.31-6.1 6.54-8.56 3.11-2.37-2.25-1.07-6.67 1.86-7.64zM77.09.28c3.08-1.09 6.84 1.12 6.7 4.53.3 4.31-6.1 6.54-8.56 3.11-2.37-2.25-1.06-6.67 1.86-7.64zM114.08.28c3.09-1.09 6.84 1.12 6.72 4.53.28 4.31-6.13 6.54-8.58 3.11-2.36-2.25-1.05-6.67 1.86-7.64zM151.09.28c3.07-1.09 6.84 1.12 6.7 4.53.3 4.31-6.1 6.54-8.56 3.11-2.38-2.25-1.06-6.67 1.86-7.64zM188.07.28c3.09-1.09 6.86 1.12 6.72 4.53.3 4.31-6.1 6.54-8.56 3.11-2.38-2.25-1.07-6.67 1.84-7.64zM3.09 37.28c3.08-1.09 6.84 1.13 6.7 4.53.3 4.31-6.1 6.54-8.56 3.11-2.37-2.25-1.06-6.67 1.86-7.64zM40.08 37.28c3.09-1.09 6.85 1.13 6.72 4.54.29 4.3-6.11 6.52-8.57 3.1-2.37-2.25-1.06-6.67 1.85-7.64zM77.09 37.28c3.08-1.09 6.84 1.12 6.7 4.53.3 4.31-6.11 6.54-8.56 3.11-2.37-2.25-1.06-6.67 1.86-7.64zM114.08 37.28c3.09-1.09 6.84 1.13 6.72 4.53.28 4.31-6.11 6.53-8.58 3.11-2.36-2.25-1.05-6.67 1.86-7.64zM151.07 37.28c3.09-1.09 6.86 1.13 6.72 4.54.28 4.3-6.11 6.53-8.56 3.1-2.38-2.25-1.06-6.67 1.84-7.64zM188.09 37.28c3.06-1.08 6.82 1.12 6.7 4.53.3 4.31-6.1 6.54-8.56 3.11-2.38-2.25-1.07-6.67 1.86-7.64zM3.09 74.28c3.08-1.09 6.83 1.12 6.7 4.53.3 4.31-6.1 6.54-8.56 3.11-2.37-2.25-1.06-6.67 1.86-7.64zM40.09 74.28c3.08-1.09 6.84 1.12 6.7 4.53.3 4.31-6.1 6.54-8.56 3.11-2.37-2.25-1.06-6.67 1.86-7.64zM77.08 74.28c3.08-1.09 6.84 1.12 6.72 4.53.29 4.31-6.11 6.54-8.57 3.11-2.37-2.25-1.06-6.67 1.85-7.64zM114.08 74.28c3.09-1.09 6.84 1.12 6.72 4.53.28 4.31-6.11 6.54-8.58 3.11-2.36-2.25-1.05-6.67 1.86-7.64zM151.07 74.28c3.1-1.09 6.86 1.12 6.72 4.53.3 4.31-6.1 6.53-8.56 3.11-2.38-2.25-1.07-6.67 1.84-7.64zM188.09 74.28c3.06-1.09 6.82 1.12 6.7 4.53.3 4.31-6.1 6.54-8.56 3.11-2.38-2.25-1.06-6.67 1.86-7.64z" fill="#2476CC"/>
</svg>