<svg width="1460" height="300" viewBox="0 0 1460 300" fill="none" xmlns="http://www.w3.org/2000/svg">
<path d="M166.2 221.4H86.4L72.3 258H0.3L92.1 48H161.7L253.5 258H180.3L166.2 221.4ZM146.7 170.4L126.3 117.6L105.9 170.4H146.7ZM264.799 48H368.299C391.699 48 412.299 52.3 430.099 60.9C448.099 69.3 461.999 81.4 471.799 97.2C481.799 113 486.799 131.6 486.799 153C486.799 174.4 481.799 193 471.799 208.8C461.999 224.6 448.099 236.8 430.099 245.4C412.299 253.8 391.699 258 368.299 258H264.799V48ZM365.299 202.8C380.499 202.8 392.599 198.5 401.599 189.9C410.799 181.1 415.399 168.8 415.399 153C415.399 137.2 410.799 125 401.599 116.4C392.599 107.6 380.499 103.2 365.299 103.2H335.599V202.8H365.299ZM652.821 221.4H573.021L558.921 258H486.921L578.721 48H648.321L740.121 258H666.921L652.821 221.4ZM633.321 170.4L612.921 117.6L592.521 170.4H633.321ZM938.92 258L938.32 162.3L892.72 239.1H861.52L815.92 165.6V258H751.42V48H809.62L878.02 159.9L944.62 48H1002.82L1003.42 258H938.92ZM1180.75 221.4H1100.95L1086.85 258H1014.85L1106.65 48H1176.25L1268.05 258H1194.85L1180.75 221.4ZM1161.25 170.4L1140.85 117.6L1120.45 170.4H1161.25ZM1357.65 262.8C1340.25 262.8 1323.25 260.9 1306.65 257.1C1290.25 253.1 1276.75 247.8 1266.15 241.2L1288.95 189.6C1298.95 195.4 1310.15 200.1 1322.55 203.7C1334.95 207.1 1346.85 208.8 1358.25 208.8C1368.05 208.8 1375.05 207.9 1379.25 206.1C1383.45 204.1 1385.55 201.2 1385.55 197.4C1385.55 193 1382.75 189.7 1377.15 187.5C1371.75 185.3 1362.75 182.9 1350.15 180.3C1333.95 176.9 1320.45 173.3 1309.65 169.5C1298.85 165.5 1289.45 159.1 1281.45 150.3C1273.45 141.3 1269.45 129.2 1269.45 114C1269.45 100.8 1273.15 88.8 1280.55 78C1287.95 67.2 1298.95 58.7 1313.55 52.5C1328.35 46.3 1346.25 43.2 1367.25 43.2C1381.65 43.2 1395.75 44.8 1409.55 48C1423.55 51 1435.85 55.5 1446.45 61.5L1425.15 112.8C1404.55 102.4 1385.05 97.2 1366.65 97.2C1348.45 97.2 1339.35 101.6 1339.35 110.4C1339.35 114.6 1342.05 117.8 1347.45 120C1352.85 122 1361.75 124.2 1374.15 126.6C1390.15 129.6 1403.65 133.1 1414.65 137.1C1425.65 140.9 1435.15 147.2 1443.15 156C1451.35 164.8 1455.45 176.8 1455.45 192C1455.45 205.2 1451.75 217.2 1444.35 228C1436.95 238.6 1425.85 247.1 1411.05 253.5C1396.45 259.7 1378.65 262.8 1357.65 262.8Z" fill="#EFEFEF"/>
<path d="M253 244.608C251.608 244.608 250.348 244.356 249.22 243.852C248.116 243.324 247.252 242.604 246.628 241.692C246.004 240.756 245.692 239.7 245.692 238.524C245.692 237.348 246.004 236.304 246.628 235.392C247.252 234.456 248.116 233.736 249.22 233.232C250.348 232.704 251.608 232.44 253 232.44C254.416 232.44 255.676 232.704 256.78 233.232C257.884 233.736 258.748 234.456 259.372 235.392C259.996 236.304 260.308 237.348 260.308 238.524C260.308 239.7 259.996 240.756 259.372 241.692C258.748 242.604 257.884 243.324 256.78 243.852C255.676 244.356 254.416 244.608 253 244.608ZM235.612 232.8H243.892V258H236.908L227.332 246.552V258H219.052V232.8H226.036L235.612 244.248V232.8ZM253 236.4C252.448 236.4 251.992 236.58 251.632 236.94C251.296 237.3 251.128 237.828 251.128 238.524C251.128 239.196 251.296 239.724 251.632 240.108C251.992 240.468 252.448 240.648 253 240.648C253.552 240.648 253.996 240.468 254.332 240.108C254.692 239.724 254.872 239.196 254.872 238.524C254.872 237.828 254.692 237.3 254.332 236.94C253.996 236.58 253.552 236.4 253 236.4ZM246.412 246.408H259.588V251.088H246.412V246.408Z" fill="#2476CC"/>
<path d="M265 48H270V258H265C265 188 265 118 265 48Z" fill="#2476CC"/>
<path d="M243 66.3301C249.51 60.9601 255.31 54.7801 261.95 49.5701C262.01 51.9901 262 54.4101 261.95 56.8301C257.22 60.8701 252.71 65.2201 247.76 68.9901C245.93 70.4101 244.39 67.7801 243 66.8901V66.3301Z" fill="#2476CC"/>
</svg>
