<svg width="1920" height="342" viewBox="0 0 1920 342" fill="none" xmlns="http://www.w3.org/2000/svg">
<path fill-rule="evenodd" clip-rule="evenodd" d="M1905.03 160.98C1909.98 162.43 1914.95 163.84 1920 164.94V342H0V341.6C2.15229 341.076 4.31684 340.637 6.48404 340.198C7.08589 340.076 7.68795 339.954 8.29 339.83C63.24 329.44 117.89 317.39 171.93 302.97C186.62 299.15 201.27 295.23 215.83 290.95C219.311 290.025 222.775 289.04 226.24 288.056C227.493 287.699 228.746 287.343 230 286.99C237.738 284.865 245.414 282.547 253.092 280.229C255.604 279.47 258.116 278.712 260.63 277.96C266.08 276.37 271.51 274.69 276.92 272.97C277.435 272.81 277.95 272.652 278.465 272.495C278.98 272.337 279.495 272.18 280.01 272.02C288.465 269.406 296.882 266.675 305.301 263.944C308.413 262.934 311.525 261.924 314.64 260.92C315.69 260.6 316.75 260.28 317.81 259.96C318.82 259.62 319.82 259.29 320.83 258.96C321.83 258.62 322.84 258.28 323.85 257.94C324.201 257.829 324.555 257.716 324.909 257.603C325.575 257.392 326.245 257.179 326.91 256.97C327.41 256.805 327.91 256.637 328.41 256.47C328.91 256.302 329.41 256.135 329.91 255.97C330.313 255.832 330.718 255.692 331.123 255.552C331.744 255.337 332.367 255.122 332.99 254.91C333.415 254.773 333.84 254.633 334.266 254.494C334.832 254.308 335.399 254.123 335.97 253.94C343.46 251.474 350.896 248.855 358.332 246.235C361.48 245.126 364.628 244.017 367.78 242.92C373.21 241.05 378.64 239.16 384.07 237.27C386.11 236.55 388.147 235.825 390.185 235.1C392.223 234.375 394.26 233.65 396.3 232.93C397.454 232.516 398.608 232.105 399.763 231.694C402.961 230.556 406.158 229.418 409.34 228.22C411.897 227.315 414.445 226.385 416.994 225.455C419.29 224.618 421.587 223.78 423.89 222.96C426.55 221.92 429.22 220.94 431.92 220C434.59 218.96 437.27 217.95 439.97 216.98C448.999 213.579 457.986 210.053 466.971 206.527C472.595 204.321 478.218 202.115 483.85 199.94C485.53 199.28 487.22 198.62 488.91 197.96C490.33 197.41 491.76 196.86 493.19 196.32C500.049 193.593 506.879 190.795 513.708 187.998C520.929 185.04 528.149 182.083 535.4 179.21L535.57 178.93C537.163 178.363 538.748 177.771 540.34 177.178L540.87 176.98C549.744 173.23 558.692 169.662 567.64 166.094C574.391 163.402 581.142 160.71 587.86 157.94C588.464 157.701 589.07 157.463 589.677 157.224C590.751 156.802 591.827 156.378 592.9 155.95C593.523 155.713 594.145 155.474 594.767 155.235C595.562 154.929 596.358 154.623 597.16 154.32C602.945 152.025 608.736 149.748 614.527 147.471C620.951 144.946 627.375 142.42 633.79 139.87C635.47 139.23 637.16 138.57 638.84 137.91C640.15 137.403 641.454 136.89 642.762 136.376C643.131 136.231 643.5 136.085 643.87 135.94C645.56 135.29 647.25 134.64 648.96 133.99C655.689 131.424 662.392 128.788 669.095 126.152C679.657 121.998 690.221 117.845 700.89 113.96C706.71 111.78 712.53 109.605 718.35 107.43C724.17 105.255 729.99 103.08 735.81 100.9C738.46 99.86 741.15 98.89 743.84 97.93C746.061 97.1084 748.284 96.2901 750.508 95.4718C753.669 94.3082 756.831 93.1442 759.99 91.97C769.63 88.4128 779.323 84.9886 789.016 81.564C790.604 81.0028 792.192 80.4417 793.78 79.88C796.883 78.8304 799.972 77.7551 803.063 76.6793C804.685 76.1151 806.306 75.5508 807.93 74.99C814.32 72.74 820.72 70.5 827.14 68.31C854.27 59.18 881.42 50.09 908.86 41.95C931.2 35.3 953.73 29.24 976.64 24.89C1013.16 17.6 1050.01 11.93 1087.01 7.73999C1115.92 4.75999 1144.87 1.81999 1173.94 1.26999C1212.98 -0.820012 1252.12 1.26999 1291.03 4.60999C1298.51 5.33445 1306 5.98453 1313.49 6.63459C1332.04 8.24574 1350.6 9.8568 1369.04 12.6C1401.88 16.97 1434.46 23.07 1466.86 29.95C1475.28 31.7619 1483.69 33.6654 1492.09 35.5689C1501.69 37.7414 1511.28 39.9139 1520.9 41.95C1522.49 42.3389 1524.08 42.7402 1525.67 43.1417C1528.13 43.7622 1530.59 44.3832 1533.06 44.96C1534.39 45.32 1535.7 45.66 1537.08 46.01C1566.62 52.77 1595.78 61.0287 1624.92 69.2847C1629.28 70.5182 1633.63 71.7516 1637.99 72.98C1639.71 73.5039 1641.44 74.0145 1643.16 74.5256C1644.8 75.0096 1646.44 75.4939 1648.07 75.99C1660.24 79.5696 1672.37 83.2934 1684.5 87.0174C1687.69 87.9958 1690.87 88.9742 1694.06 89.95C1698.88 91.514 1703.71 93.0596 1708.53 94.6052C1720.37 98.396 1732.2 102.187 1743.95 106.25C1744.2 106.33 1744.58 106.445 1744.96 106.56C1745.34 106.675 1745.72 106.79 1745.97 106.87C1746.95 107.28 1747.95 107.68 1748.96 108.08C1753.86 109.641 1758.73 111.324 1763.6 113.008C1764.47 113.309 1765.34 113.61 1766.21 113.91C1769.62 115.172 1773.07 116.336 1776.51 117.501C1780.96 119.004 1785.41 120.507 1789.78 122.22C1790.28 122.39 1791.27 122.73 1791.77 122.9C1795.81 124.39 1799.86 125.88 1803.95 127.27C1804.9 127.63 1805.88 127.99 1806.88 128.35C1809.01 129.065 1811.12 129.818 1813.25 130.576L1814.11 130.88C1819.46 133.008 1824.88 134.937 1830.31 136.868C1833.5 138.005 1836.7 139.142 1839.88 140.32C1859.09 146.93 1878.35 153.48 1897.91 158.98C1899.35 159.388 1900.79 159.793 1902.24 160.198C1903.17 160.458 1904.1 160.718 1905.03 160.98Z" fill="#fff"/>
</svg>
