<svg width="540" height="150" viewBox="0 0 540 150" fill="none" xmlns="http://www.w3.org/2000/svg">
<path d="M69.1124 0.186037C198.144 -0.176157 327.175 0.149817 456.225 0.0230493C481.669 -0.57457 507.457 10.4723 523.502 30.4473C533.825 43.1422 539.855 59.4771 539.366 75.9026C539.529 95.6964 530.112 114.856 515.624 128.077C500.104 142.329 479.043 150.297 457.999 149.971C333.622 149.953 209.245 149.953 84.8859 149.953C75.9216 149.917 66.7943 150.533 58.0474 148.178C35.7363 142.745 15.4172 127.207 6.10884 105.983C-2.54758 84.6677 -2.09484 59.5314 8.04657 38.814C19.2746 15.869 44.0305 1.68914 69.1124 0.186037ZM62.285 10.4542C45.8596 13.8588 30.1223 22.8775 20.8682 37.1117C14.4755 46.4019 11.252 57.4307 9.67644 68.4776C6.68835 91.2415 17.6266 114.965 36.2614 128.185C49.0469 136.425 64.2409 142.021 79.6341 140.717C103.829 139.631 126.176 123.205 135.502 101.021C145.952 76.5726 141.642 45.0075 121.739 26.4994C106.092 11.7943 83.1293 6.39765 62.285 10.4542ZM112.72 9.42197C132.587 19.165 146.042 39.5746 149.067 61.2881C150.533 75.5947 150.244 90.6439 144.068 103.936C137.893 119.71 125.506 131.97 111.58 141.116C227.735 140.5 343.927 141.097 460.1 140.808C482.755 140.645 505.338 129.598 518.649 111.126C526.454 100.477 530.891 87.2573 530.366 74.0011C530.547 55.6922 521.075 38.162 507.185 26.5899C493.114 14.6919 474.57 8.5346 456.189 9.15032C341.699 9.33142 227.192 8.84246 112.72 9.42197Z" fill="#257DCF"/>
<path d="M73.658 20.2515C75.7949 18.3138 77.9319 16.3579 80.0507 14.4021C85.1757 16.9918 90.4276 23.2758 96.4943 19.1649C98.4864 21.2476 100.442 23.3483 102.416 25.4309C95.1904 28.9079 86.9505 31.7874 82.3869 38.8502C77.6602 46.42 74.6902 56.5614 79.3806 64.8556C85.9726 77.297 105.06 79.0717 114.695 69.2925C118.968 65.2903 120.906 59.6038 122.663 54.1709C128.241 57.2858 133.583 60.7991 138.527 64.8919C137.223 67.554 135.937 70.198 134.615 72.8601C130.703 71.8279 126.756 70.9224 122.808 70.0169C120.743 72.172 118.642 74.2908 116.469 76.3372C117.194 80.4662 118.027 84.559 118.824 88.6699C116.053 89.7927 113.3 90.9336 110.529 92.0564C108.193 88.8147 105.821 85.6274 103.394 82.4764C100.859 82.3858 98.3053 82.2772 95.7699 82.1504C93.1621 85.4645 90.6268 88.8329 88.182 92.2737C85.1214 91.169 82.0971 89.9919 79.0909 88.8147C80.105 84.9393 81.0105 81.0457 82.0428 77.2064C79.8877 74.9608 77.7327 72.7152 75.6138 70.4334C71.7746 70.7051 67.7542 72.5523 63.9693 71.4838C62.4843 69.1657 61.2891 66.6847 59.9852 64.258C63.5709 61.451 67.2109 58.7346 70.8691 56.0181C70.8872 54.4426 70.9053 51.2915 70.9234 49.716C67.5188 46.8546 64.0418 44.102 60.5104 41.4036C62.1584 38.5966 63.7882 35.7896 65.3819 32.9464C69.0944 33.5621 72.8068 34.3227 76.5012 35.1015C77.6602 33.1094 78.8374 31.1173 79.9964 29.1434C77.9138 26.1553 75.7768 23.2034 73.658 20.2515Z" fill="#257DCF"/>
<path d="M213.682 25.5395C226.667 25.2316 241.571 26.5717 250.807 36.8942C259.337 46.5829 258.811 60.7628 255.497 72.4797C250.716 91.5673 232.896 106.091 213.338 107.558C214.298 80.2307 213.936 52.867 213.682 25.5395ZM220.075 34.2683C220.129 55.2756 220.111 76.2828 220.111 97.29C231.719 95.1349 241.988 87.3116 246.732 76.4639C251.966 65.924 253.161 51.7985 244.976 42.3996C238.673 35.5722 228.894 34.2321 220.075 34.2683Z" fill="#257DCF"/>
<path d="M309.518 25.2498C327.664 40.317 339.834 61.2337 347.241 83.3818C352.203 60.5817 366.401 40.5162 384.076 25.612C383.895 52.7221 384.003 79.8504 383.967 106.961C381.577 106.979 379.168 106.979 376.778 106.979C376.94 85.4101 376.723 63.8415 377.031 42.2728C360.189 59.3684 350.79 83.1102 350.283 107.015C348.563 107.015 345.14 106.997 343.438 106.997C342.677 83.1464 333.405 59.3503 316.472 42.3272C317.16 63.8596 316.871 85.4101 316.907 106.961C314.571 106.979 312.253 106.997 309.917 107.015C309.699 79.7599 310.55 52.4867 309.518 25.2498Z" fill="#257DCF"/>
<path d="M156.093 91.2777C168.607 66.4132 187.043 45.1524 206.547 25.5396C205.569 52.7766 206.384 80.0316 206.148 107.269C204.591 107.287 201.44 107.323 199.864 107.341C199.882 98.9744 199.846 90.6077 199.973 82.241C189.831 82.2229 179.708 82.241 169.567 82.2229C164.369 91.4951 157.343 100.948 157.759 112.086C157.814 118.207 165.51 118.913 170.128 118.841C263.085 118.823 356.06 118.986 449.017 118.841C460.372 118.877 472.179 117.863 482.411 112.539C488.569 109.369 493.73 103.103 493.313 95.8414C493.929 86.9676 488.641 78.9451 481.777 73.8019C473.393 67.1376 462.545 61.6684 459.159 50.7302C456.75 39.6109 466.04 30.9906 474.407 25.5034C476.308 27.2419 478.246 28.9805 480.184 30.719C474.443 35.4456 466.113 40.462 466.511 48.883C473.139 62.4834 490.289 66.7391 497.406 80.0497C503.256 90.8069 502.006 105.602 492.553 113.933C481.325 123.984 465.352 125.885 450.864 125.74C356.676 125.36 262.506 125.686 168.335 125.668C161.943 125.994 154.445 124.129 151.729 117.645C148.306 108.826 152.29 99.3184 156.093 91.2777ZM173.732 75.1239C182.425 75.3593 191.117 75.2507 199.828 75.2326C199.647 64.3668 199.828 53.501 199.701 42.6352C189.795 52.3782 181.338 63.5156 173.732 75.1239Z" fill="#257DCF"/>
<path d="M260.097 80.5748C272.231 60.2195 288.076 42.4539 304.574 25.5757C304.556 52.7945 304.484 80.0315 304.629 107.25C302.89 107.268 299.449 107.287 297.729 107.287C297.838 98.938 297.765 90.5894 297.874 82.2408C287.859 82.2227 277.845 82.2227 267.812 82.2408C262.832 90.028 257.851 98.0506 255.696 107.178C253.904 107.16 250.354 107.124 248.561 107.105C250.571 97.5616 254.628 88.6155 260.097 80.5748ZM271.905 75.2143C280.507 75.2867 289.109 75.2505 297.711 75.2505C297.584 64.4028 297.747 53.5551 297.62 42.7074C288.04 52.6859 279.384 63.5517 271.905 75.2143Z" fill="#257DCF"/>
<path d="M403.96 79.7238C416.039 59.8756 431.451 42.3273 447.804 25.9199C447.659 53.0844 447.695 80.267 447.786 107.45C445.54 107.468 443.294 107.486 441.049 107.486C441.139 99.1373 441.103 90.7888 441.157 82.4402C431.088 82.4583 421.001 82.4402 410.914 82.4583C406.224 90.4085 400.755 98.2137 398.944 107.432C397.079 107.395 393.366 107.305 391.519 107.25C393.982 97.3988 398.274 88.1266 403.96 79.7238ZM415.061 75.4318C423.718 75.4137 432.392 75.4137 441.049 75.4137C440.886 64.5841 441.248 53.7545 440.813 42.9249C431.288 52.9758 422.559 63.7872 415.061 75.4318Z" fill="#257DCF"/>
<path d="M99.4642 51.7986C102.851 47.6696 106.455 43.6855 110.384 40.0273C107.559 44.7902 104.463 49.3357 101.203 53.7907C105.513 57.1229 109.606 60.7448 113.336 64.7289C108.592 61.8314 103.992 58.7165 99.6816 55.2032C96.4037 59.4047 92.6188 63.1896 88.5622 66.6486C91.5322 62.266 94.7014 58.0102 97.8525 53.7545C93.5786 50.2593 89.5401 46.4925 85.9725 42.2729C90.5543 45.3154 95.0274 48.5389 99.4642 51.7986Z" fill="#257DCF"/>
<path d="M40.7889 69.6004C42.5274 65.9061 44.3384 62.2479 46.2218 58.626C49.1012 59.2598 51.9806 59.9118 54.8601 60.5637C54.8601 64.6203 54.8963 68.695 54.9144 72.7515C56.9608 74.2727 58.9891 75.8121 60.9993 77.3695C65.0558 76.1018 69.1305 74.8885 73.1871 73.657C74.835 76.2467 76.483 78.8364 78.131 81.4261C75.1972 84.2874 72.2273 87.1306 69.2754 89.9738C69.71 92.817 70.0903 95.6602 70.4163 98.5035C73.9114 100.351 77.4609 102.089 81.0285 103.828C80.4853 106.852 80.4309 110.057 79.0184 112.864C74.8531 113.281 70.6698 113.154 66.4865 113.209C65.1283 115.128 63.7519 117.048 62.3756 118.967C63.8606 123.241 65.1826 127.588 66.414 131.934C64.0779 133.147 61.7961 134.451 59.3513 135.429C55.2766 133.926 52.7593 129.833 49.5177 127.099C48.2863 127.153 45.8233 127.28 44.61 127.334C44.773 125.759 45.1171 122.607 45.2801 121.014C53.6648 117.953 61.9047 111.977 64.0598 102.85C67.1384 88.8872 54.1357 74.7617 40.1731 75.3955C33.6536 75.9569 28.1302 79.7781 23.313 83.9071C20.7777 78.1844 18.3148 72.4255 15.9786 66.6123C18.514 65.1273 21.0493 63.6242 23.5666 62.103C26.446 65.2541 29.3435 68.4052 32.2592 71.5382C35.1024 70.8681 37.9456 70.2162 40.7889 69.6004Z" fill="#257DCF"/>
<path d="M39.3222 80.1946C40.2458 85.5007 41.1693 90.8068 41.9662 96.1311C45.7511 96.276 53.339 96.5476 57.124 96.6744L42.3284 99.4995L42.0748 115.49L39.8111 99.916C35.99 99.8617 28.3658 99.753 24.5447 99.6987C29.4524 98.594 34.3782 97.598 39.2859 96.5838C38.8513 91.1328 38.9238 85.6637 39.3222 80.1946Z" fill="#257DCF"/>
</svg>
