<svg width="159" height="265" viewBox="0 0 159 265" fill="none" xmlns="http://www.w3.org/2000/svg">
<path d="M72 234.216C69.216 234.216 66.696 233.712 64.44 232.704C62.232 231.648 60.504 230.208 59.256 228.384C58.008 226.512 57.384 224.4 57.384 222.048C57.384 219.696 58.008 217.608 59.256 215.784C60.504 213.912 62.232 212.472 64.44 211.464C66.696 210.408 69.216 209.88 72 209.88C74.832 209.88 77.352 210.408 79.56 211.464C81.768 212.472 83.496 213.912 84.744 215.784C85.992 217.608 86.616 219.696 86.616 222.048C86.616 224.4 85.992 226.512 84.744 228.384C83.496 230.208 81.768 231.648 79.56 232.704C77.352 233.712 74.832 234.216 72 234.216ZM37.224 210.6H53.784V261H39.816L20.664 238.104V261H4.104V210.6H18.072L37.224 233.496V210.6ZM72 217.8C70.896 217.8 69.984 218.16 69.264 218.88C68.592 219.6 68.256 220.656 68.256 222.048C68.256 223.392 68.592 224.448 69.264 225.216C69.984 225.936 70.896 226.296 72 226.296C73.104 226.296 73.992 225.936 74.664 225.216C75.384 224.448 75.744 223.392 75.744 222.048C75.744 220.656 75.384 219.6 74.664 218.88C73.992 218.16 73.104 217.8 72 217.8ZM58.824 237.816H85.176V247.176H58.824V237.816Z" fill="#2476CC"/>
<path d="M107.12 1.02001C124.24 0.980014 141.36 1.00004 158.49 1.01004C158.48 89 158.49 177 158.49 265H107.13C107.12 177.01 107.14 89.01 107.12 1.02001Z" fill="#2476CC"/>
</svg>
