<svg width="204" height="211" viewBox="0 0 204 211" fill="none" xmlns="http://www.w3.org/2000/svg">
<path d="M152.38 0H203.17C203.36 69.99 203.17 139.97 203.27 209.96C186.29 210.02 169.31 210.04 152.34 209.95C152.37 139.96 152.28 69.98 152.38 0Z" fill="#2476CC"/>
<path d="M0 121C45.53 80.7801 91.09 40.5901 136.63 0.390137C136.63 22.8301 136.67 45.2701 136.61 67.7201C107.05 93.8901 77.55 120.15 48.01 146.35C43.85 150.08 38.47 153.05 32.71 152.53C26.36 151.79 19.94 148.84 16.24 143.45C10.85 135.95 5.4 128.49 0 121Z" fill="#2476CC"/>
</svg>
