<svg width="1920" height="389" viewBox="0 0 1920 389" fill="none" xmlns="http://www.w3.org/2000/svg">
<path fill-rule="evenodd" clip-rule="evenodd" d="M1903.21 3.57052C1899.4 4.26161 1895.58 4.95266 1891.81 5.8C1839.77 15.96 1788.06 27.85 1736.92 41.84C1728.31 43.8 1719.8 46.21 1711.41 48.92C1708.94 49.39 1706.52 50.04 1704.19 50.94C1699.4 52.03 1694.69 53.43 1690 54.84C1673.23 59.45 1656.59 64.55 1640.03 69.84C1610.6 79 1581.2 88.36 1552.25 98.94C1548.87 99.9679 1545.55 101.142 1542.23 102.315C1541.12 102.705 1540.02 103.095 1538.91 103.48C1537.91 103.81 1536.92 104.14 1535.96 104.47C1534.04 105.225 1532.08 105.891 1530.13 106.558C1527.97 107.296 1525.81 108.034 1523.69 108.89C1517.15 111.1 1510.67 113.45 1504.26 115.97C1501.5 116.82 1498.74 117.69 1496.15 118.94C1493.43 119.81 1490.72 120.68 1488.14 121.88C1485.4 122.77 1482.69 123.71 1480.06 124.85C1471.89 127.769 1463.83 130.97 1455.77 134.169C1449.59 136.626 1443.4 139.082 1437.17 141.41C1435.43 142.16 1433.67 142.85 1431.91 143.46C1430.22 144.17 1428.54 144.85 1426.83 145.46C1420.46 147.903 1414.15 150.518 1407.85 153.132C1400.14 156.33 1392.43 159.527 1384.6 162.41L1384.5 163.01C1382.6 163.34 1380.82 164.03 1379.12 164.86C1374.8 166.6 1370.49 168.356 1366.17 170.113C1355.03 174.648 1343.89 179.185 1332.65 183.43L1332.51 184.02C1330.62 184.35 1328.81 184.95 1327.15 185.89C1325.71 186.4 1324.28 186.91 1322.86 187.42C1317.81 189.458 1312.73 191.446 1307.65 193.433C1300.49 196.235 1293.34 199.038 1286.24 201.98C1284.48 202.45 1282.78 203.11 1281.21 203.99C1279.45 204.44 1277.73 205.04 1276.18 205.97C1274.41 206.42 1272.69 207.02 1271.1 207.88C1269.64 208.38 1268.21 208.88 1266.78 209.4C1253.55 214.54 1240.33 219.71 1227.14 224.95C1224.42 225.81 1221.72 226.72 1219.14 227.88C1214.73 229.347 1210.4 231.037 1206.08 232.727L1205.61 232.91C1204.13 233.452 1202.65 233.988 1201.17 234.525C1195.49 236.586 1189.81 238.648 1184.23 240.98C1181.5 241.82 1178.76 242.69 1176.21 243.98C1173.47 244.8 1170.73 245.64 1168.18 246.95C1165.41 247.75 1162.69 248.7 1160.05 249.87C1151.22 253.023 1142.37 256.148 1133.53 259.272C1126.38 261.797 1119.24 264.322 1112.1 266.86C1108.29 268.079 1104.52 269.409 1100.75 270.739C1096.08 272.388 1091.41 274.036 1086.67 275.47L1085.8 275.96C1078.01 278.484 1070.24 281.029 1062.46 283.573C1051.87 287.035 1041.28 290.497 1030.68 293.91C1023.71 296.209 1016.65 298.231 1009.6 300.252C1004.38 301.747 999.164 303.243 993.98 304.85C958.29 314.95 921.72 321.33 885.13 327.16C856.88 331.42 828.49 334.79 800.03 337.26C782.41 338.8 764.75 340.13 747.05 340.46C702.35 342.82 657.56 339.95 613.07 335.66C589.99 333.8 566.91 331.71 544.01 328.16C501.9 322.42 460.26 313.65 418.85 304.14C416.32 303.606 413.798 303.031 411.275 302.457C407.236 301.537 403.195 300.617 399.12 299.86C396.905 299.207 394.656 298.684 392.407 298.161C391.935 298.051 391.462 297.941 390.99 297.83C389.66 297.46 388.31 297.12 386.98 296.79C385.778 296.483 384.569 296.208 383.373 295.937L382.99 295.85C369.63 292.75 356.35 289.33 343.09 285.83C330.178 282.384 317.311 278.758 304.441 275.132C296.958 273.023 289.474 270.914 281.98 268.84C278.65 267.73 275.29 266.69 271.88 265.86C269.76 265.09 267.59 264.48 265.42 263.91C261.425 262.691 257.431 261.464 253.438 260.236C245.307 257.737 237.175 255.238 229.02 252.81C228 252.47 226.98 252.14 225.96 251.82C222.552 250.723 219.141 249.631 215.729 248.538C202.477 244.295 189.218 240.049 176.08 235.5C175.57 235.305 175.06 235.112 174.55 234.92C174.04 234.728 173.53 234.535 173.02 234.34C172.765 234.295 172.38 234.225 171.995 234.155C171.61 234.085 171.225 234.015 170.97 233.97C167.135 232.287 163.138 231.008 159.143 229.73C157.347 229.156 155.551 228.581 153.77 227.97C149.992 226.359 146.088 225.081 142.184 223.803C138.163 222.486 134.142 221.17 130.26 219.49C130.005 219.42 129.628 219.315 129.25 219.21C128.872 219.105 128.495 219 128.24 218.93C126.326 218.067 124.341 217.396 122.356 216.727C120.203 216 118.051 215.273 115.99 214.3C115.685 214.285 115.228 214.258 114.77 214.23C114.312 214.203 113.855 214.175 113.55 214.16L113.41 213.37C111.283 212.82 109.217 212.094 107.157 211.371C106.708 211.213 106.259 211.056 105.81 210.9C103.58 209.95 101.308 209.112 99.0379 208.274C97.4598 207.691 95.8823 207.109 94.32 206.49C78.93 200.98 63.49 195.63 47.91 190.68C46.7158 190.293 45.5225 189.903 44.3292 189.513C36.9586 187.106 29.5908 184.7 22.06 182.85C19.74 182.03 17.36 181.41 14.97 180.84C13.779 180.504 12.5903 180.153 11.401 179.801C7.63742 178.689 3.86779 177.576 0 176.93V0H1920C1914.49 1.52705 1908.85 2.54884 1903.21 3.57052ZM1920 388.75H0V389H1920V388.75Z" fill="#fff"/>
</svg>
